<?xml version="1.0" encoding="utf-8"?>
<!-- Generator: Adobe Illustrator 15.1.0, SVG Export Plug-In . SVG Version: 6.00 Build 0)  -->
<!DOCTYPE svg PUBLIC "-//W3C//DTD SVG 1.1//EN" "http://www.w3.org/Graphics/SVG/1.1/DTD/svg11.dtd">
<svg version="1.1" id="signature2017_xA0_Image_1_" xmlns="http://www.w3.org/2000/svg" xmlns:xlink="http://www.w3.org/1999/xlink"
	 x="0px" y="0px" width="123.84px" height="48.48px" viewBox="0 0 123.84 48.48" enable-background="new 0 0 123.84 48.48"
	 xml:space="preserve">
<g>
	<g>
		<path fill-rule="evenodd" clip-rule="evenodd" d="M18.12,6.48c-0.02,0.14,0.026,0.213,0.12,0.24c-0.148,0.365-0.413-0.13-0.72,0
			C17.622,6.542,17.822,6.462,18.12,6.48z"/>
		<path fill-rule="evenodd" clip-rule="evenodd" d="M17.88,7.92c0.177,0.303-0.783,0.493-1.32,0.48
			c0.102-0.178,0.386-0.173,0.6-0.24C16.063,8.109,16.371,6.5,17.4,6.6c-0.051,0.25,0.083,0.318,0.12,0.48
			c0.112-0.073,0.443-0.279,0.36,0.12c-0.377,0.057-0.49-0.15-0.6-0.36c-0.35,0.104-0.135,0.18-0.12,0.48
			c0.215-0.304,0.736,0.285,0.84-0.24c0.262,0.348-0.288,0.908-0.72,0.96C17.356,8.333,17.841,8.058,17.88,7.92z"/>
		<path fill-rule="evenodd" clip-rule="evenodd" d="M19.32,25.68c-0.121-0.968-0.488-1.125-0.48-1.8c0.158-0.504,0.394,0,0.72,0
			c-0.1-0.275-0.784-0.282-0.48-0.6c0.408-0.057,0.911,0.051,0.6,0.36c0.505,0.042,0.552-0.8,0.96-0.48
			c0.012,0.372-0.147,0.573-0.24,0.84c-0.581-0.077-0.849,0.159-1.2,0c0.055,0.475,1.252,0.279,0.72,0.96
			c0.517,0.077,0.389-0.491,0.96-0.36c-0.667-0.37,0.03-0.788,0.12-1.2c0.097,0.023,0.12,0.121,0.24,0.12
			c0.666,0.358,0.311,2.032-0.48,2.04c1.253,1.188,2.493,2.388,3.72,3.601c1.988-1.253,3.544-2.937,4.92-4.8
			c-0.297-0.959-0.822-1.486-0.36-2.64c2.284-0.778,2.931,1.942,1.44,2.879c0.596,0.636,0.957,1.655,1.68,2.28
			c0.093,0.081,0.376-0.069,0.48,0c0.353,0.238,0.52,0.706,0.84,0.84c2.173,0.91,4.764-0.192,6.6-0.84
			c-0.519-1.809,1.504-2.089,2.88-2.399c-0.294-0.364-0.781,0.091-1.2,0c1.581-0.819,5.755-1.397,6.6,0.119
			c-0.07,0.25-0.252,0.389-0.36,0.601c-2.833-0.777-4.268,0.344-5.88,1.56c2.206,0.785,5.443-0.624,7.32-1.92
			c0.85,0.473,0.697,1.151,1.44,1.8c0.828,0.35,1.893-0.168,2.64,0.12c-0.574-0.085,0.859-0.589,1.8-1.08
			c1.052-0.548,2.486-1.369,4.08-0.96c0.9,0.231,1.575,1.019,2.28,1.44c2.019-0.214,2.935-2.512,5.16-1.44
			c1.14,2.682,5.243,1.221,7.2,0c-0.463-0.396,0.113-1.15,0.24-1.68c1.837-0.643,2.047,1.339,1.08,1.92
			c0.093,0.435,0.456,0.375,0.359,0.72c1.551,0.406,3.287,0.708,4.92,0.36c1.345-0.286,2.093-1.249,3-1.68
			c0.934-1.726-0.362-3.059,0.36-4.8c-3.58-0.439-7.815-0.273-11.76-1.08c4.73-0.695,14.094,0.135,20.399,0.84
			c0.387-0.134,0.095-0.946,0.48-1.08c-0.02-0.141-0.219-0.102-0.36-0.12c0.65-0.833,0.403-1.675,1.32-2.4
			c1.687,0.693,1.149,2.447,1.32,3.6c3.771,0.79,8.381,0.739,12.119,1.56c0.367,0.186-0.52,0.106-0.72,0.12
			c1.271,0.483,3.646-0.354,4.681,0.84c0.312-0.153,0.361-0.263,0.72-0.12c0.194,0.618,0.719,0.982-0.12,1.2
			c0.02,0.141,0.219,0.101,0.359,0.12c-2.511,2.471-10.917,5.283-11.279-0.6c-0.383-0.103-0.371,0.189-0.6,0.24
			c0.088,0.112,0.218,0.182,0.359,0.24c-0.02,0.141-0.219,0.101-0.359,0.12c0.309,1.335-1.564,2.497-2.641,3.24
			c-2.112,0.152-3.312-0.607-4.08-1.8c-1.588,1.07-4.213,2.957-6.96,2.159c-0.778-0.226-1.271-1.092-2.16-1.319
			c0.226-0.229-0.071-0.218,0-0.601c-1.349,2.385-8.041,4.15-10.319,1.2c-1.949,1.575-7.323,2.542-8.521-0.36
			c-1.62,0.153-2.517,2.085-4.2,1.921c-0.508-0.05-0.762-0.68-1.32-0.48c-2.275-3.704-6.224,2.83-10.08,0.72
			c-0.481-0.263-0.5-0.846-1.32-1.2c-1.733,1.087-5.228,2.212-8.4,1.2c-0.18,0.171-0.98,0.75-1.56,0.96
			c-0.241,0.088-1.216,0.312-0.96,0c-3.125,1.517-6.82-0.595-8.28-2.88c-0.685,0.275-0.761,1.159-1.56,1.32
			c0.003,0.116,0.146,0.093,0.24,0.12c-0.93,0.629-1.412,1.708-2.64,2.04c0.528,0.269-0.288,0.462-0.48,0.72
			c1.721,1.146,2.439,3.145,3.96,4.32c-0.165,0.273,0.309,0.451,0,0.479c0.146,0.174,0.458,0.183,0.6,0.36
			c0.222,1.214,1.181,1.772,0.96,3.12c-0.689,4.203-9.24,2.698-12.24,1.439c0.398-0.359,0.068-0.133-0.36-0.12
			c0.175-0.426-0.736-0.668-0.84-1.199c0.02-0.141,0.219-0.102,0.36-0.12c-0.037-0.163-0.3-0.1-0.479-0.12
			c0.242-1.991,1.786-3.521,3.36-4.561c-0.003-0.116-0.147-0.093-0.24-0.119c0.018-0.263,0.302-0.258,0.6-0.24
			c-0.434-0.247-0.018-0.444,0.36-0.24c-0.435-0.279,0.073-0.091,0-0.6c0.921-0.68,1.705-1.496,2.52-2.28
			c-1.493-1.256-2.506-2.824-4.2-3.601c-1.525,1.125-4.002,2.312-6.6,2.761c-0.112,0.128-0.443,0.037-0.36,0.359
			c-1.304-0.156-3.411,0.531-3.96-0.84c0.461-0.312,0.994,0.156,1.32,0.36c-0.015-0.456-0.948-0.707-1.56-0.72
			c0.26-0.215,0.682-0.08,0.6-0.36c0.36-0.179,0.738,0.497,1.2,0.6c0.02-0.14-0.026-0.213-0.12-0.239
			C13.193,28.665,16.781,27.033,19.32,25.68z M94.08,19.32c0.538-0.054,0.37-0.567,0-0.72C93.945,18.978,94.069,18.872,94.08,19.32z
			 M86.04,24.72c0.313,0.337,0.954,0.438,1.44,0.84c2.624-0.135,4.667-0.852,5.76-2.52c-0.248-1.066-0.425-1.458-0.36-2.64
			c-2.421-0.298-4.804-0.636-7.319-0.84C86.585,21.837,84.499,23.066,86.04,24.72z M95.28,20.76c0.337,0.974-0.756,1.891-0.24,3.24
			c2.646,2.559,4.986-0.846,5.64-3C98.979,21.036,96.628,20.36,95.28,20.76z M105.72,21c0.42-0.168,0.769,0.336,0.96,0
			C106.264,20.912,106.045,20.636,105.72,21z M102.36,23.28c1.578,2.575,5.464,0.83,7.8,0.12c0.088-0.459,0.759-0.557,1.08-1.08
			c-2.742-0.868-6.12-1.002-9.24-1.2C101.979,22.171,102.713,22.291,102.36,23.28z M25.68,40.08c1.43-0.123,3.603-0.297,4.2-2.04
			c-0.281-0.408-0.43-0.884-0.24-1.2c-1.52-1.904-3.042-4.326-5.04-6c-1.87,1.89-4.067,3.453-5.4,5.88
			c-0.475-0.154-0.245,0.396-0.72,0.24c-0.507,2.925,4.084,2.674,6.72,3.24c0.274-0.054,0.606-0.663,0.84-0.36
			C25.833,39.834,25.732,39.933,25.68,40.08z"/>
	</g>
</g>
</svg>
